<?xml version="1.0" standalone="no"?>
<!DOCTYPE svg PUBLIC "-//W3C//DTD SVG 20010904//EN"
 "http://www.w3.org/TR/2001/REC-SVG-20010904/DTD/svg10.dtd">
<svg version="1.0" xmlns="http://www.w3.org/2000/svg"
 width="318.000000pt" height="315.000000pt" viewBox="0 0 318.000000 315.000000"
 preserveAspectRatio="xMidYMid meet">

<g transform="translate(0.000000,315.000000) scale(0.100000,-0.100000)"
fill="#000000" stroke="none">
<path d="M810 2254 l0 -635 263 136 c144 74 331 170 415 213 l152 77 140 -73
c119 -62 140 -70 140 -54 0 42 29 52 147 52 90 0 113 -3 124 -16 9 -11 16 -53
19 -111 l5 -95 123 -64 122 -64 0 635 0 635 -825 0 -825 0 0 -636z m221 545
c14 -27 6 -109 -12 -120 -21 -13 -103 -11 -117 3 -13 13 -17 120 -5 131 3 4
32 7 64 7 49 0 60 -3 70 -21z m1347 9 c7 -7 12 -36 12 -65 0 -41 -4 -54 -19
-63 -27 -14 -104 -13 -119 2 -13 13 -17 120 -5 131 11 12 118 8 131 -5z
m-1348 -297 c15 -30 12 -97 -6 -115 -9 -10 -33 -16 -59 -16 -71 0 -75 4 -75
74 0 35 3 66 7 69 3 4 32 7 64 7 47 0 60 -4 69 -19z m1348 7 c7 -7 12 -35 12
-63 0 -28 -5 -56 -12 -63 -7 -7 -35 -12 -63 -12 -28 0 -56 5 -63 12 -13 13
-17 120 -5 131 11 12 118 8 131 -5z m-1348 -304 c14 -35 12 -87 -3 -108 -10
-14 -25 -17 -72 -14 l-60 3 -3 59 c-4 84 -2 86 68 86 56 0 61 -2 70 -26z
m1348 14 c7 -7 12 -35 12 -63 0 -28 -5 -56 -12 -63 -12 -12 -95 -16 -122 -6
-20 8 -23 129 -3 137 25 10 113 7 125 -5z m-1354 -294 c19 -19 21 -93 3 -118
-10 -14 -25 -17 -72 -14 l-60 3 -3 58 c-2 35 2 64 9 73 16 20 103 19 123 -2z
m1354 4 c17 -17 15 -113 -2 -127 -9 -7 -38 -11 -73 -9 l-58 3 -3 58 c-2 35 2
64 9 73 14 17 110 19 127 2z"/>
<path d="M1585 1966 c-22 -12 -148 -78 -280 -145 -132 -68 -323 -166 -425
-219 -258 -132 -230 -106 -230 -212 0 -50 2 -90 5 -90 3 0 37 16 75 35 38 19
72 35 75 35 3 0 5 -184 5 -410 l0 -410 825 0 825 0 0 410 c0 306 3 410 12 410
6 0 40 -16 75 -35 35 -19 68 -35 74 -35 6 0 9 35 7 91 l-3 92 -230 118 -230
118 -3 101 -3 100 -94 0 -95 0 0 -50 0 -51 -163 86 c-90 47 -168 85 -173 85
-5 -1 -27 -11 -49 -24z m25 -656 l0 -120 -115 0 -115 0 0 120 0 120 115 0 115
0 0 -120z m290 0 l0 -120 -120 0 -120 0 0 120 0 120 120 0 120 0 0 -120z
m-870 31 c12 -23 13 -91 1 -109 -5 -9 -27 -12 -72 -10 l-64 3 -3 54 c-5 78 -2
81 67 81 49 0 62 -4 71 -19z m1354 3 c9 -23 7 -97 -3 -112 -5 -9 -27 -12 -72
-10 l-64 3 -3 54 c-5 78 -2 81 72 81 49 0 65 -4 70 -16z m-774 -314 l0 -120
-115 0 -115 0 0 120 0 120 115 0 115 0 0 -120z m290 0 l0 -120 -120 0 -120 0
0 120 0 120 120 0 120 0 0 -120z m-870 21 c15 -30 12 -97 -6 -115 -19 -19
-104 -22 -122 -4 -13 13 -17 120 -5 131 3 4 32 7 64 7 47 0 60 -4 69 -19z
m1348 7 c7 -7 12 -36 12 -65 0 -41 -4 -54 -19 -63 -27 -14 -104 -13 -119 2
-13 13 -17 120 -5 131 11 12 118 8 131 -5z m-1344 -320 c6 -23 6 -50 0 -70
-10 -33 -10 -33 -74 -33 l-65 0 -3 59 c-4 85 -3 87 70 84 l63 -3 9 -37z m1344
30 c7 -7 12 -35 12 -63 0 -28 -5 -56 -12 -63 -12 -12 -95 -16 -122 -6 -20 8
-23 129 -3 137 25 10 113 7 125 -5z"/>
<path d="M230 275 l0 -145 25 0 25 0 0 118 0 117 29 -80 c15 -44 33 -97 40
-117 11 -32 17 -38 41 -38 27 0 30 5 67 112 l38 113 3 -112 3 -113 29 0 30 0
0 146 0 145 -47 -3 -48 -3 -36 -104 -35 -104 -33 94 c-17 52 -34 100 -36 107
-3 7 -22 12 -50 12 l-45 0 0 -145z"/>
<path d="M673 399 c-45 -29 -66 -80 -61 -147 4 -48 10 -60 41 -88 46 -42 94
-52 152 -30 59 23 85 65 85 138 0 61 -27 113 -70 135 -38 19 -110 16 -147 -8z
m126 -48 c31 -31 38 -88 15 -131 -16 -29 -25 -36 -56 -38 -54 -5 -78 23 -78
88 0 41 5 56 25 75 29 30 68 32 94 6z"/>
<path d="M920 413 c0 -4 21 -70 46 -145 l46 -138 38 0 38 0 46 135 c25 75 46
140 46 145 0 6 -13 10 -29 10 -29 0 -31 -4 -55 -82 -13 -46 -29 -99 -34 -118
l-8 -35 -23 75 c-47 160 -45 155 -79 158 -18 2 -32 0 -32 -5z"/>
<path d="M1230 275 l0 -145 30 0 30 0 0 145 0 145 -30 0 -30 0 0 -145z"/>
<path d="M1360 275 l0 -145 85 0 c84 0 85 0 85 25 0 24 -3 25 -55 25 l-55 0 0
35 0 35 50 0 c47 0 50 2 50 25 0 23 -3 25 -50 25 l-50 0 0 35 0 35 50 0 c47 0
50 2 50 25 0 25 -1 25 -80 25 l-80 0 0 -145z"/>
<path d="M1700 275 l0 -145 30 0 30 0 0 60 0 61 63 -3 62 -3 3 -57 c3 -57 4
-58 32 -58 l30 0 0 145 0 145 -30 0 c-28 0 -29 -1 -32 -57 l-3 -58 -62 -3 -63
-3 0 61 0 60 -30 0 -30 0 0 -145z"/>
<path d="M2068 403 c-38 -24 -68 -83 -68 -134 0 -105 95 -171 195 -136 99 35
122 179 41 255 -31 28 -43 32 -88 32 -32 0 -64 -7 -80 -17z m111 -43 c43 -23
52 -120 15 -161 -24 -26 -78 -25 -104 3 -30 33 -28 111 5 143 25 26 54 31 84
15z"/>
<path d="M2332 306 c5 -132 17 -159 77 -177 55 -16 105 -5 135 32 25 29 26 37
26 145 l0 114 -30 0 -30 0 0 -104 c0 -116 -9 -136 -60 -136 -42 0 -50 24 -50
139 l0 101 -36 0 -37 0 5 -114z"/>
<path d="M2680 413 c-32 -12 -50 -37 -50 -70 0 -49 12 -66 69 -92 57 -27 71
-49 44 -69 -17 -13 -58 -12 -95 3 -15 6 -18 2 -18 -23 0 -29 3 -31 46 -38 55
-8 120 9 134 36 16 30 12 85 -7 102 -10 9 -37 25 -61 37 -77 39 -65 75 21 68
47 -4 48 -3 45 22 -3 24 -7 26 -58 28 -30 1 -62 -1 -70 -4z"/>
<path d="M2880 275 l0 -145 85 0 c84 0 85 0 85 25 0 24 -3 25 -55 25 l-55 0 0
35 c0 35 0 35 45 35 41 0 45 2 45 25 0 23 -4 25 -45 25 -45 0 -45 0 -45 35 l0
35 50 0 c47 0 50 2 50 25 0 25 -1 25 -80 25 l-80 0 0 -145z"/>
</g>
</svg>
